<mxfile host="app.diagrams.net" modified="2023-10-31T23:03:16.511Z" agent="Mozilla/5.0 (X11; Linux x86_64; rv:109.0) Gecko/20100101 Firefox/118.0" version="22.0.8" etag="9IBkuvZO6EjslGf0ViHN" type="github">
  <diagram name="Page-1" id="FKj3-smNwW7fqM2csTkB">
    <mxGraphModel>
      <root>
        <mxCell id="0" />
        <mxCell id="1" parent="0" />
      </root>
    </mxGraphModel>
  </diagram>
</mxfile>
